<svg width="243" height="213" viewBox="0 0 243 213" fill="none" xmlns="http://www.w3.org/2000/svg">
<path d="M206.355 152.019H35.9336V177.043H206.355V152.019Z" fill="#110239"/>
<path d="M218.531 33.2148H23.7587C21.5523 33.2148 19.7637 35.0035 19.7637 37.2098V165.14C19.7637 167.346 21.5523 169.135 23.7587 169.135H218.531C220.737 169.135 222.526 167.346 222.526 165.14V37.2098C222.526 35.0035 220.737 33.2148 218.531 33.2148Z" fill="#110239"/>
<path d="M213.19 42.2197H29.0986V158.722H213.19V42.2197Z" fill="#FEFEFE"/>
<path d="M0 205.422V209.14C0 211.194 2.237 212.86 5 212.86H237.292C240.052 212.86 242.292 211.193 242.292 209.14V205.422H0Z" fill="#110239"/>
<path d="M121.149 176.752H21.6991C21.3621 177.11 5.72908 191.105 0.952083 201.499C-1.08892 205.944 0.246089 208.283 4.05209 208.283H238.252C242.052 208.283 243.385 205.944 241.344 201.499C236.569 191.105 220.935 177.11 220.597 176.752H121.149Z" fill="#110239"/>
<path d="M229.706 202.97H17.8057L32.4897 181.231H215.022L229.706 202.97Z" fill="#9C9EB9"/>
<path d="M227.128 199.156L226.67 198.476H212.529L209.897 193.202H223.107L222.649 192.522H209.557L206.923 187.248H219.086L218.628 186.57H206.585L203.919 181.233H202.697L205.321 186.57H190.184L188.06 181.233H186.838L188.92 186.57H173.782L172.202 181.233H170.98L172.518 186.57H157.381L156.342 181.233H155.12L156.12 186.57H140.98L140.48 181.233H139.258L139.713 186.57H125.343V181.233H123.998V186.57H109.109L109.564 181.233H108.343L107.843 186.57H92.7068L93.7068 181.233H92.4848L91.4459 186.57H76.3058L77.8438 181.233H76.6219L75.0418 186.57H59.9048L61.9848 181.233H60.7628L58.6408 186.57H43.5028L46.1269 181.233H44.9048L42.2389 186.57H28.8889L28.4288 187.248H41.8998L39.2679 192.522H24.8679L24.4078 193.202H38.9279L36.2958 198.476H20.8428L20.3818 199.156H35.9508L34.0508 202.971H35.4428L37.3188 199.156H53.6368L52.1188 202.971H53.5108L54.9969 199.156H71.3148L70.1869 202.971H71.5789L72.6788 199.156H88.9969L88.2568 202.971H89.6429L90.3549 199.156H106.673L106.32 202.971H107.712L108.036 199.156H123.998V202.971H125.343V199.156H140.784L141.108 202.971H142.5L142.147 199.156H158.465L159.177 202.971H160.569L159.829 199.156H176.143L177.243 202.971H178.643L177.513 199.156H193.831L195.32 202.971H196.712L195.195 199.156H211.513L213.389 202.971H214.781L212.881 199.156H227.128ZM59.6429 187.247H74.8428L73.2809 192.521H57.5838L59.6429 187.247ZM43.1708 187.247H58.3708L56.2708 192.521H40.5779L43.1708 187.247ZM53.9078 198.476H37.6508L40.2438 193.202H56.0038L53.9078 198.476ZM71.5208 198.476H55.2628L57.3188 193.202H73.0768L71.5208 198.476ZM89.1309 198.476H72.8728L74.3929 193.202H90.1528L89.1309 198.476ZM90.2899 192.521H74.5898L76.1098 187.247H91.3098L90.2899 192.521ZM106.741 198.476H90.4828L91.4688 193.202H107.227L106.741 198.476ZM107.296 192.521H91.5959L92.5818 187.247H107.782L107.296 192.521ZM124.003 198.476H108.103L108.55 193.202H124.007L124.003 198.476ZM124.003 192.521H108.603L109.053 187.247H124.002L124.003 192.521ZM125.348 187.247H139.777L140.227 192.521H125.343L125.348 187.247ZM125.348 198.476V193.202H140.284L140.731 198.476H125.348ZM205.657 187.247L208.243 192.517H192.551L190.451 187.243L205.657 187.247ZM189.188 187.247L191.243 192.517H175.543L173.981 187.243L189.188 187.247ZM141.046 187.247H156.246L157.232 192.521H141.532L141.046 187.247ZM142.09 198.476L141.598 193.202H157.358L158.342 198.476H142.09ZM157.515 187.247H172.715L174.235 192.521H158.535L157.515 187.247ZM159.7 198.476L158.675 193.202H174.435L175.955 198.476H159.7ZM177.31 198.476L175.751 193.202H191.509L193.565 198.476H177.31ZM194.923 198.476L192.823 193.202H208.583L211.176 198.476H194.923Z" fill="#D0D1DE"/>
<path d="M121.143 208.287H110.853C110.843 208.808 111.025 209.315 111.366 209.71C111.579 209.903 111.858 210.007 112.146 210H130.146C130.434 210.007 130.713 209.903 130.926 209.71C131.266 209.315 131.449 208.808 131.439 208.287H121.143Z" fill="#110239"/>
<path d="M213.176 42.2285H29.0986V158.722H213.176V42.2285Z" fill="#FEFEFE"/>
<path d="M124.555 101.655L107.945 109.046L86.9376 88.039L29.0986 132.106V158.723H213.176V21.835L136.269 114.906L124.555 101.655Z" fill="#01C7E2"/>
<path d="M71.2744 123.164H65.3994V127.618H71.2744V123.164Z" fill="#FEFEFE"/>
<path d="M79.5596 123.164H73.6846V127.618H79.5596V123.164Z" fill="#FEFEFE"/>
<path d="M87.8438 123.164H81.9688V127.618H87.8438V123.164Z" fill="#FD425F"/>
<path d="M96.1279 123.164H90.2529V127.618H96.1279V123.164Z" fill="#FEFEFE"/>
<path d="M104.412 123.164H98.5371V127.618H104.412V123.164Z" fill="#FEFEFE"/>
<path d="M112.698 123.164H106.822V127.618H112.698V123.164Z" fill="#FD425F"/>
<path d="M71.2744 130.77H65.3994V135.224H71.2744V130.77Z" fill="#FEFEFE"/>
<path d="M79.5596 130.77H73.6846V135.224H79.5596V130.77Z" fill="#FEFEFE"/>
<path d="M87.8438 130.77H81.9688V135.224H87.8438V130.77Z" fill="#FEFEFE"/>
<path d="M96.1279 130.77H90.2529V135.224H96.1279V130.77Z" fill="#FEFEFE"/>
<path d="M104.412 130.77H98.5371V135.224H104.412V130.77Z" fill="#FD425F"/>
<path d="M112.698 130.77H106.822V135.224H112.698V130.77Z" fill="#FEFEFE"/>
<path d="M71.2744 138.374H65.3994V142.828H71.2744V138.374Z" fill="#FEFEFE"/>
<path d="M79.5596 138.374H73.6846V142.828H79.5596V138.374Z" fill="#FD425F"/>
<path d="M87.8438 138.374H81.9688V142.828H87.8438V138.374Z" fill="#FEFEFE"/>
<path d="M96.1279 138.374H90.2529V142.828H96.1279V138.374Z" fill="#FEFEFE"/>
<path d="M104.412 138.374H98.5371V142.828H104.412V138.374Z" fill="#FEFEFE"/>
<path d="M112.698 138.374H106.822V142.828H112.698V138.374Z" fill="#FEFEFE"/>
<path d="M71.2744 145.979H65.3994V150.433H71.2744V145.979Z" fill="#FEFEFE"/>
<path d="M79.5596 145.979H73.6846V150.433H79.5596V145.979Z" fill="#FEFEFE"/>
<path d="M87.8438 145.979H81.9688V150.433H87.8438V145.979Z" fill="#FD425F"/>
<path d="M96.1279 145.979H90.2529V150.433H96.1279V145.979Z" fill="#FEFEFE"/>
<path d="M126.544 110.562L125.955 109.979L125.208 110.292L124.736 109.14L126.202 108.523L127.367 109.673L126.544 110.562Z" fill="white"/>
<path d="M113.162 115.361L112.688 114.202L114.705 113.357L115.179 114.513L113.162 115.361ZM117.188 113.661L116.717 112.505L118.726 111.663L119.2 112.817L117.188 113.661ZM121.204 111.971L120.733 110.817L122.733 109.975L123.204 111.131L121.204 111.971Z" fill="white"/>
<path d="M109.682 116.824L108.464 115.759L109.241 114.811L109.89 115.377L110.668 115.051L111.14 116.211L109.682 116.824Z" fill="white"/>
<path d="M106.684 114.202L104.902 112.648L105.682 111.701L107.461 113.255L106.684 114.202ZM103.121 111.091L101.339 109.534L102.119 108.59L103.901 110.144L103.121 111.091ZM99.5546 107.976L97.7726 106.419L98.5546 105.475L100.334 107.032L99.5546 107.976ZM95.9886 104.863L94.2066 103.306L94.9916 102.364L96.7736 103.918L95.9886 104.863ZM92.4256 101.752L90.6416 100.195L91.4266 99.2529L93.2106 100.807L92.4256 101.752Z" fill="white"/>
<path d="M88.8578 98.6413L88.2838 98.1413L87.6649 98.5733L86.9648 97.5413L88.3499 96.5703L89.6439 97.7013L88.8578 98.6413Z" fill="white"/>
<path d="M33.2453 136.802L32.5283 135.745L34.6683 134.245L35.3853 135.299L33.2453 136.802ZM37.5203 133.802L36.8063 132.748L38.9383 131.248L39.6523 132.302L37.5203 133.802ZM41.7823 130.802L41.0683 129.75L43.1953 128.259L43.9093 129.311L41.7823 130.802ZM46.0313 127.82L45.3173 126.771L47.4343 125.285L48.1483 126.334L46.0313 127.82ZM50.2593 124.848L49.5453 123.802L51.6563 122.319L52.3703 123.368L50.2593 124.848ZM54.4763 121.886L53.7643 120.84L55.8643 119.367L56.5763 120.411L54.4763 121.886ZM58.6763 118.938L57.9643 117.891L60.0643 116.421L60.7733 117.465L58.6763 118.938ZM62.8623 115.997L62.1533 114.953L64.2413 113.491L64.9503 114.53L62.8623 115.997ZM67.0323 113.067L66.3233 112.026L68.4033 110.566L69.1123 111.607L67.0323 113.067ZM71.1893 110.147L70.4803 109.108L72.5523 107.656L73.2613 108.692L71.1893 110.147ZM75.3283 107.238L74.6223 106.202L76.6863 104.753L77.3923 105.789L75.3283 107.238ZM79.4513 104.338L78.7513 103.305L80.8103 101.861L81.5103 102.894L79.4513 104.338ZM83.5663 101.452L82.8663 100.419L84.9143 98.9805L85.6203 100.011L83.5663 101.452Z" fill="white"/>
<path d="M140.836 118.678L139.936 117.838L141.514 116.001L142.414 116.841L140.836 118.678ZM143.989 115.005L143.089 114.165L144.661 112.336L145.561 113.173L143.989 115.005ZM147.131 111.345L146.231 110.508L147.798 108.682L148.698 109.519L147.131 111.345ZM150.263 107.698L149.363 106.861L150.925 105.043L151.825 105.88L150.263 107.698ZM153.384 104.061L152.484 103.226L154.041 101.416L154.936 102.248L153.384 104.061ZM156.492 100.44L155.597 99.6046L157.148 97.7997L158.043 98.6317L156.492 100.44ZM159.592 96.8297L158.7 95.9977L160.244 94.1976L161.139 95.0296L159.592 96.8297ZM162.679 93.2296L161.787 92.4007L163.328 90.6086L164.22 91.4356L162.679 93.2296ZM165.756 89.6456L164.867 88.8186L166.396 87.0316L167.285 87.8586L165.756 89.6456ZM168.822 86.0716L167.932 85.2477L169.463 83.4657L170.353 84.2896L168.822 86.0716ZM171.878 82.5136L170.991 81.6897L172.516 79.9137L173.4 80.7376L171.878 82.5136ZM174.923 78.9657L174.036 78.1416L175.556 76.3727L176.44 77.1946L174.923 78.9657ZM177.958 75.4286L177.074 74.6066L178.586 72.8456L179.47 73.6646L177.958 75.4286ZM180.98 71.9076L180.098 71.0866L181.608 69.3306L182.49 70.1496L180.98 71.9076ZM183.996 68.3967L183.114 67.5756L184.614 65.8277L185.493 66.6467L183.996 68.3967ZM186.996 64.8967L186.117 64.0777L187.617 62.3326L188.496 63.1516L186.996 64.8967ZM189.989 61.4097L189.11 60.5907L190.604 58.8536L191.48 59.6726L189.989 61.4097ZM192.971 57.9356L192.095 57.1196L193.581 55.3876L194.457 56.2036L192.971 57.9356ZM195.943 54.4716L195.067 53.6576L196.55 51.9306L197.424 52.7446L195.943 54.4716ZM198.905 51.0206L198.031 50.2066L199.509 48.4876L200.383 49.3017L198.905 51.0206ZM201.856 47.5826L200.985 46.7686L202.458 45.0546L203.329 45.8656L201.856 47.5826ZM204.799 44.1526L203.928 43.3416L205.396 41.6376L206.267 42.4486L204.799 44.1526ZM207.538 40.9056L206.667 40.0947L208.135 38.3866L209.006 39.1976L207.538 40.9056ZM210.277 37.6586L209.406 36.8476L210.874 35.1396L211.745 35.9506L210.277 37.6586Z" fill="white"/>
<path d="M138.059 121.914L136.726 120.601L137.544 119.706L137.971 120.126L138.351 119.682L139.251 120.521L138.059 121.914Z" fill="white"/>
<path d="M134.687 118.592L132.652 116.585L133.471 115.693L135.507 117.7L134.687 118.592ZM130.616 114.579L128.578 112.572L129.399 111.68L131.435 113.687L130.616 114.579Z" fill="white"/>
<path d="M208.285 8.23633L136.525 99.1953L124.914 85.1823L107.925 93.2453L86.3326 70.2063L29.0996 116.739V122.333L86.1246 75.9763L107.393 98.6693L124.293 90.6553L136.579 105.487L211.045 11.0873C210.063 10.1987 209.141 9.24634 208.285 8.23633Z" fill="#FD425F"/>
<path d="M219.402 0L202.47 5.733L213.67 16.933L219.402 0Z" fill="#FD425F"/>
<path d="M51.25 57.0628C55.075 57.3478 58.565 58.9828 58.589 62.8058L52.213 62.8448C52.171 61.3978 50.688 61.0968 49.756 61.1028C49.17 61.1028 47.276 61.1158 47.281 62.2878C47.297 64.9068 59.033 62.1148 59.075 69.5248C59.101 73.9698 55.632 75.6438 51.36 75.9788L51.66 80.6988L47.767 80.7228L47.979 75.9638C44.015 75.5738 40.316 73.7378 40.292 69.7398L46.668 69.7008V69.8398C46.713 71.5978 48.68 71.9298 49.679 71.9248C50.644 71.9198 52.539 71.8388 52.531 70.5648C52.515 67.8408 40.779 70.3918 40.737 63.2238C40.714 59.0898 43.908 57.4838 47.869 57.1178L47.602 52.3638L51.495 52.3398L51.25 57.0628Z" fill="#FD425F"/>
<path d="M148.501 185.236C148.501 185.236 148.765 190.419 148.012 191.188C147.259 191.957 136.995 193.077 136.035 192.203C135.075 191.329 135.47 189.703 137.635 188.914C139.95 188.069 141.162 188.621 142.595 187.888C144.028 187.155 143.453 184.845 143.453 184.845L148.501 185.236Z" fill="#110239"/>
<path d="M182.147 185.236C182.147 185.236 181.88 190.419 182.634 191.188C183.388 191.957 193.651 193.077 194.611 192.203C195.571 191.329 195.176 189.703 193.018 188.914C190.7 188.069 189.489 188.621 188.055 187.888C186.621 187.155 187.197 184.845 187.197 184.845L182.147 185.236Z" fill="#110239"/>
<path d="M182.709 155.255C181.589 149.612 175.577 134.202 173.348 128.855C172.453 128.555 171.472 128.255 170.478 127.965C170.737 126.765 170.912 125.725 171.106 124.82C169.361 125.283 167.506 125.505 165.63 126.099C165.376 126.18 165.091 126.266 164.795 126.355C164.495 126.266 164.211 126.18 163.958 126.099C162.082 125.505 160.23 125.283 158.485 124.82C158.676 125.725 158.851 126.761 159.113 127.965C158.119 128.253 157.138 128.551 156.24 128.855C154.014 134.2 147.999 149.61 146.879 155.255C145.33 163.067 142.74 186.226 142.74 186.226L149.34 187.095C149.34 187.095 155.972 155.982 156.919 154.261C158.619 151.169 160.401 148.432 161.992 146.012C162.296 145.547 162.711 145.164 163.2 144.9C163.689 144.635 164.236 144.497 164.792 144.497C165.348 144.497 165.895 144.635 166.384 144.9C166.873 145.164 167.288 145.547 167.592 146.012C169.18 148.432 170.964 151.169 172.665 154.261C173.612 155.983 180.244 187.095 180.244 187.095L186.844 186.226C186.844 186.226 184.26 163.069 182.709 155.255Z" fill="#FD425F"/>
<path d="M184.531 58.9859C184.141 56.3039 183.741 55.8859 182.841 55.3619C182.408 55.1596 182.023 54.8702 181.708 54.5119C181.347 54.1018 180.943 53.7329 180.502 53.4119C180.037 53.121 179.665 52.705 179.427 52.2119C179.218 51.5679 180.063 51.7459 180.607 51.9449C181.201 52.1599 182.313 53.7889 182.941 53.5639C183.569 53.3389 182.093 51.4369 181.795 51.0639C181.086 50.1819 180.246 50.2999 179.304 49.8949C178.755 49.6569 178.577 49.3799 179.171 49.0259C179.407 48.9393 179.658 48.9035 179.909 48.9208C180.159 48.938 180.404 49.0079 180.626 49.1259C181.588 49.4337 182.458 49.9747 183.161 50.7009C182.544 49.9895 181.792 49.407 180.95 48.9869C180.474 48.7439 178.266 48.0659 178.582 47.2869C179.215 45.7169 183.508 48.6759 183.977 49.5059C183.382 48.7679 182.666 48.1362 181.86 47.6379C181.405 47.3139 180.298 46.5939 181.227 46.2199C182.601 45.6679 184.262 48.2199 185.206 49.2199C184.772 48.4321 184.234 47.7068 183.606 47.0639C182.85 46.1429 183.789 45.9079 184.728 46.7159C185.158 47.1312 185.561 47.5741 185.934 48.0419C187.434 49.9309 187.488 51.1969 187.752 53.4999C187.852 54.3289 187.87 55.6769 188.142 58.0859C188.3 59.4779 185.69 58.7649 184.531 58.9859Z" fill="#F88667"/>
<path d="M120.266 96.4499C117.731 95.4979 117.417 94.4799 117.095 93.4879C116.99 93.022 116.789 92.5829 116.506 92.1979C116.184 91.7581 115.91 91.2843 115.69 90.7849C115.507 90.2698 115.181 89.817 114.751 89.4789C114.168 89.1359 114.16 89.9999 114.236 90.5789C114.32 91.2039 115.675 92.6379 115.322 93.2059C114.969 93.7739 113.422 91.9209 113.122 91.5499C112.41 90.6679 112.706 89.8729 112.51 88.8679C112.395 88.2789 112.162 88.0469 111.691 88.5509C111.557 88.7629 111.469 89.001 111.433 89.2496C111.397 89.4981 111.414 89.7514 111.482 89.9929C111.578 90.9994 111.922 91.9666 112.482 92.8079C111.92 92.053 111.512 91.1942 111.282 90.2809C111.146 89.7659 110.955 87.4629 110.126 87.6049C108.457 87.8879 110.426 92.7149 111.138 93.3499C110.545 92.6109 110.08 91.7768 109.764 90.8829C109.544 90.3699 109.079 89.1329 108.513 89.9619C107.681 91.1839 109.813 93.3499 110.595 94.4909C109.918 93.9001 109.324 93.2187 108.832 92.4659C108.094 91.5319 107.663 92.3979 108.251 93.4889C108.565 93.9989 108.912 94.4873 109.29 94.9509C110.815 96.8159 112.04 97.1429 114.232 97.8939C115.693 98.2742 117.109 98.8106 118.455 99.4939C119.707 100.095 119.801 97.5359 120.266 96.4499Z" fill="#F88667"/>
<path d="M168.051 91.4285C166.625 91.696 165.17 91.7664 163.726 91.6375C163.209 91.5922 162.701 91.4834 162.211 91.3135C162.274 93.1135 162.274 97.2885 161.011 99.0005C161.011 99.0005 161.461 101.017 165.137 101.069C168.813 101.121 169.268 99.0005 169.268 99.0005C168.344 96.5873 167.93 94.0094 168.051 91.4285V91.4285Z" fill="#F88667"/>
<path d="M182.196 101.602C181.196 100.323 176.44 97.5079 173.22 97.0019C167.989 96.1752 162.66 96.1752 157.428 97.0019C154.207 97.5119 151.005 98.3279 150.003 99.6019C148.747 101.202 152.503 110.195 153.129 118.444C153.647 125.283 154.578 130.568 154.578 130.568C156.642 134.356 172.771 134.461 174.833 130.668C174.833 130.668 175.223 124.823 176.34 118.442C177.798 110.133 183.467 103.224 182.196 101.602Z" fill="#E5E6ED"/>
<path d="M156.291 116.539C156.391 114.32 157.128 110.339 156.309 108.308C155.14 105.401 152.5 104.308 150.056 102.981C150.786 106.701 152.698 112.724 153.13 118.44C153.648 125.279 154.579 130.564 154.579 130.564C155.18 131.389 156.041 131.987 157.023 132.264C154.731 127.876 156.086 120.867 156.291 116.539Z" fill="#ABADC4"/>
<path d="M173.004 81.4147C173.004 81.4147 165.383 76.9327 164.226 78.0347C163.069 79.1367 161.264 82.8877 160.388 83.4577C159.512 84.0277 158.143 84.5727 158.266 85.2477C158.389 85.9227 158.831 85.9667 158.794 86.6477C158.757 87.3287 157.214 90.5747 158.056 91.5347C158.898 92.4947 164.437 94.6087 167.765 92.3957C171.093 90.1827 176.756 83.4217 173.004 81.4147Z" fill="#F88667"/>
<path d="M174.682 83.0624L168.264 83.1624C167.411 85.206 166.053 86.9994 164.316 88.3744C164.316 88.3744 164.47 89.3214 165.156 89.1274C165.476 89.0908 165.783 88.9826 166.055 88.8108C166.327 88.6391 166.556 88.4082 166.726 88.1354C167.186 87.4134 168.573 85.5424 169.512 87.1854C170.451 88.8284 168.442 89.3904 167.597 89.3774C167.597 89.3774 164.675 92.9194 166.948 93.5844C166.948 93.5844 169.483 93.2074 173.348 89.1084C177.213 85.0094 176.413 82.7404 174.682 83.0624Z" fill="#110239"/>
<path d="M162.543 75.5586C162.543 75.5586 159.422 77.4526 163.035 81.2486C166.648 85.0446 175.151 83.0436 175.151 83.0436C175.151 83.0436 176.056 80.5716 172.982 77.9756C170.682 76.0366 168.165 75.0476 166.14 75.9756C162.7 77.5596 162.543 75.5586 162.543 75.5586Z" fill="#110239"/>
<path d="M119.43 95.2363L116.701 99.5793C121.409 103.998 126.455 108.041 131.794 111.671C136.494 114.787 152.583 109.803 155.068 109.057C158.618 107.992 161.289 100.476 155.368 97.6823C151.899 96.0473 137.968 106.627 134.561 104.835C130.282 102.591 119.43 95.2363 119.43 95.2363Z" fill="#E5E6ED"/>
<path d="M183.349 57.8581L188.765 56.9531C188.765 56.9531 192.341 72.5931 192.13 78.2281C191.919 83.8631 182.96 104.328 180.917 105.928C178.46 107.854 171.65 102.294 176.587 96.3051C181.524 90.3161 184.721 77.9701 184.852 77.4681C184.983 76.9661 183.349 57.8581 183.349 57.8581Z" fill="#E5E6ED"/>
<path d="M115.036 48.9346H71.3438V52.8646H115.036V48.9346Z" fill="#D0D1DE"/>
<path d="M115.036 55.1445H71.3438V59.0745H115.036V55.1445Z" fill="#D0D1DE"/>
<path d="M104.412 61.3555H71.3438V65.2855H104.412V61.3555Z" fill="#D0D1DE"/>
</svg>
