<svg width="51" height="52" viewBox="0 0 51 52" fill="none" xmlns="http://www.w3.org/2000/svg">
<g clip-path="url(#clip0_5_6)">
<path d="M3.47 51.1C3.06333 51.1 2.69667 51.0333 2.37 50.9C2.05 50.7667 1.76667 50.57 1.52 50.31L1.88 49.68L1.92 49.59L1.99 49.63C2.00333 49.6767 2.02 49.73 2.04 49.79C2.06 49.8433 2.10667 49.91 2.18 49.99C2.35333 50.1367 2.55333 50.2533 2.78 50.34C3.01333 50.4267 3.27667 50.47 3.57 50.47C3.75667 50.47 3.92667 50.4433 4.08 50.39C4.24 50.33 4.37667 50.2533 4.49 50.16C4.61 50.06 4.7 49.9467 4.76 49.82C4.82667 49.6867 4.86 49.5467 4.86 49.4C4.86 49.2867 4.84667 49.1833 4.82 49.09C4.8 48.9967 4.75667 48.9133 4.69 48.84C4.63 48.76 4.54667 48.6833 4.44 48.61C4.33333 48.53 4.19667 48.4467 4.03 48.36C3.86333 48.2733 3.66333 48.18 3.43 48.08C2.99667 47.9133 2.65333 47.7333 2.4 47.54C2.15333 47.34 1.97667 47.13 1.87 46.91C1.77 46.69 1.72 46.4633 1.72 46.23C1.72 45.9233 1.79667 45.6567 1.95 45.43C2.10333 45.1967 2.32 45.0167 2.6 44.89C2.88667 44.7567 3.22667 44.69 3.62 44.69C3.84667 44.69 4.06333 44.7233 4.27 44.79C4.48333 44.85 4.68 44.9367 4.86 45.05C5.04667 45.1633 5.21 45.3033 5.35 45.47L4.96 45.99L4.9 46.07L4.84 46.03C4.83333 45.9767 4.82 45.9233 4.8 45.87C4.78 45.8167 4.73333 45.75 4.66 45.67C4.5 45.5167 4.33 45.4133 4.15 45.36C3.97 45.3 3.75667 45.27 3.51 45.27C3.34333 45.27 3.19333 45.2933 3.06 45.34C2.93333 45.3867 2.82333 45.4533 2.73 45.54C2.63667 45.6267 2.56333 45.7267 2.51 45.84C2.46333 45.9467 2.44 46.06 2.44 46.18C2.44 46.2933 2.45333 46.3967 2.48 46.49C2.50667 46.5833 2.55333 46.6733 2.62 46.76C2.68667 46.8467 2.77667 46.9333 2.89 47.02C3.01 47.1067 3.15667 47.1933 3.33 47.28C3.51 47.3667 3.72667 47.46 3.98 47.56C4.28667 47.6867 4.54 47.8133 4.74 47.94C4.94667 48.06 5.10667 48.19 5.22 48.33C5.34 48.4633 5.42333 48.61 5.47 48.77C5.52333 48.93 5.55 49.1067 5.55 49.3C5.55 49.5867 5.47667 49.87 5.33 50.15C5.19 50.4233 4.96667 50.65 4.66 50.83C4.35333 51.01 3.95667 51.1 3.47 51.1ZM13.07 49.18H10.81L10.95 48.64H12.91L13.07 49.18ZM11.99 46.26L10.35 51H9.66L11.96 44.66H12.04L14.34 51H13.62L11.99 46.26ZM20.37 51.04L18.25 44.76H18.98L20.58 49.55L22.09 44.77H22.78L20.69 51.04H20.37ZM27.09 51V44.76H30.91V45.38H27.75V47.43H30.36V48.07H27.75V50.38H30.88V51H27.09ZM37.08 51V45.39H35.31V44.76H39.63V45.39H37.79V51H37.08ZM45.7 51V48.54L43.78 44.77H44.58L46.11 47.79L47.49 44.77H48.23L46.46 48.54V51H45.7Z" fill="#1E293B"/>
<path d="M37.035 0H12.345L0 21.382L12.345 42.764H37.035L49.38 21.382L37.035 0ZM35.945 40.553L35.852 40.715H13.529L2.36798 21.382L13.529 2.05H13.716L16.246 6.432L18.946 1.763H19.292L16.419 6.739L17.775 9.087L22.004 1.762H22.477L18.012 9.49699L19.279 11.692L25.012 1.763H25.722L19.634 12.307L20.783 14.296L28.019 1.763H28.966L21.256 15.117L22.301 16.927L31.056 1.763H32.24L22.892 17.953L23.804 19.532L34.063 1.764H35.483L24.514 20.764L25.393 22.286L36.392 3.249L37.335 4.893L26.345 23.929L35.945 40.553Z" fill="#1E293B"/>
</g>
<defs>
<clipPath id="clip0_5_6">
<rect width="50.626" height="51.773" fill="white"/>
</clipPath>
</defs>
</svg>
