<svg width="169" height="213" viewBox="0 0 169 213" fill="none" xmlns="http://www.w3.org/2000/svg">
<g clip-path="url(#clip0_18_99)">
<path d="M112.434 212.545H112.378C109.891 212.445 107.387 212.231 104.937 211.906C104.575 211.858 104.247 211.669 104.025 211.379C103.803 211.089 103.706 210.723 103.754 210.361C103.802 209.999 103.991 209.671 104.281 209.449C104.571 209.227 104.937 209.129 105.299 209.177C107.666 209.49 110.085 209.698 112.488 209.794C112.845 209.813 113.181 209.97 113.424 210.231C113.668 210.493 113.8 210.839 113.793 211.197C113.786 211.554 113.64 211.895 113.387 212.146C113.133 212.398 112.792 212.542 112.434 212.546V212.545ZM119.772 212.512C119.414 212.509 119.071 212.368 118.815 212.117C118.56 211.866 118.412 211.526 118.403 211.168C118.395 210.809 118.526 210.462 118.769 210.199C119.012 209.936 119.349 209.779 119.706 209.759C122.08 209.644 124.501 209.423 126.906 209.102C127.087 209.074 127.272 209.082 127.451 209.126C127.629 209.17 127.796 209.25 127.943 209.359C128.09 209.469 128.214 209.607 128.307 209.765C128.4 209.923 128.46 210.098 128.484 210.28C128.509 210.462 128.496 210.647 128.448 210.824C128.4 211.001 128.317 211.167 128.204 211.311C128.091 211.456 127.95 211.576 127.79 211.665C127.63 211.755 127.453 211.811 127.271 211.831C124.794 212.162 122.295 212.391 119.845 212.51L119.772 212.512ZM97.8952 210.611C97.7908 210.611 97.6868 210.6 97.5851 210.576C95.1711 210.021 92.7501 209.343 90.3911 208.56C90.2152 208.507 90.0518 208.419 89.9104 208.302C89.7691 208.184 89.6527 208.039 89.5682 207.876C89.4836 207.713 89.4326 207.534 89.4182 207.351C89.4037 207.168 89.4261 206.984 89.484 206.809C89.5419 206.635 89.6341 206.474 89.7552 206.335C89.8764 206.197 90.024 206.084 90.1893 206.004C90.3547 205.924 90.5344 205.877 90.718 205.868C90.9016 205.858 91.0852 205.885 91.2581 205.947C93.5361 206.702 95.8721 207.358 98.2031 207.893C98.5327 207.968 98.8229 208.163 99.0184 208.439C99.2138 208.715 99.3009 209.053 99.263 209.389C99.225 209.725 99.0647 210.035 98.8126 210.261C98.5606 210.486 98.2343 210.611 97.8961 210.611H97.8952ZM134.317 210.585C133.977 210.584 133.65 210.458 133.398 210.23C133.145 210.003 132.986 209.69 132.95 209.352C132.915 209.015 133.005 208.675 133.204 208.4C133.403 208.125 133.697 207.933 134.029 207.861C136.364 207.361 138.729 206.762 141.046 206.075C141.393 205.981 141.763 206.027 142.077 206.203C142.39 206.379 142.623 206.67 142.724 207.015C142.826 207.36 142.789 207.731 142.62 208.049C142.452 208.366 142.166 208.606 141.824 208.715C139.437 209.415 137.009 210.036 134.607 210.552C134.512 210.573 134.414 210.584 134.316 210.583L134.317 210.585ZM148.403 206.45C148.08 206.45 147.768 206.337 147.521 206.13C147.273 205.923 147.106 205.635 147.049 205.318C146.991 205 147.047 204.673 147.207 204.392C147.367 204.112 147.62 203.896 147.922 203.783C150.171 202.944 152.422 202.014 154.622 201.018C154.788 200.939 154.967 200.893 155.15 200.884C155.334 200.875 155.517 200.903 155.689 200.965C155.862 201.028 156.02 201.125 156.154 201.249C156.289 201.374 156.397 201.524 156.473 201.691C156.549 201.858 156.59 202.039 156.595 202.222C156.6 202.406 156.568 202.588 156.502 202.759C156.435 202.93 156.335 203.086 156.207 203.218C156.08 203.35 155.927 203.455 155.758 203.526C153.502 204.548 151.188 205.503 148.88 206.363C148.727 206.42 148.565 206.449 148.402 206.45L148.403 206.45ZM83.9611 206.014C83.7752 206.014 83.5912 205.977 83.4202 205.903C81.1912 204.948 78.9272 203.877 76.6882 202.719C76.5233 202.639 76.3762 202.526 76.2555 202.388C76.1348 202.25 76.0429 202.089 75.9852 201.915C75.9275 201.741 75.9052 201.557 75.9196 201.374C75.934 201.191 75.9849 201.013 76.0691 200.85C76.1533 200.687 76.2692 200.543 76.4101 200.425C76.5509 200.307 76.7139 200.219 76.8893 200.165C77.0647 200.112 77.2491 200.094 77.4316 200.112C77.6141 200.131 77.7911 200.186 77.9521 200.273C80.1321 201.4 82.3371 202.442 84.5041 203.373C84.7959 203.498 85.0356 203.72 85.1827 204.001C85.3297 204.282 85.3752 204.606 85.3113 204.917C85.2475 205.227 85.0782 205.507 84.8322 205.707C84.5862 205.907 84.2785 206.017 83.9611 206.016V206.014ZM161.777 200.387C161.471 200.387 161.173 200.284 160.931 200.096C160.689 199.908 160.517 199.645 160.442 199.348C160.366 199.051 160.392 198.737 160.515 198.456C160.639 198.176 160.852 197.944 161.121 197.799C163.057 196.752 164.899 195.67 166.596 194.585C166.904 194.397 167.273 194.337 167.624 194.418C167.976 194.499 168.281 194.714 168.475 195.018C168.67 195.322 168.737 195.69 168.663 196.043C168.589 196.396 168.379 196.705 168.079 196.905C166.326 198.026 164.425 199.142 162.431 200.221C162.23 200.329 162.005 200.386 161.776 200.385L161.777 200.387ZM70.9111 199.278C70.6596 199.278 70.413 199.209 70.1981 199.078C68.0661 197.784 65.9711 196.412 63.9721 195.003C63.6762 194.792 63.476 194.472 63.4152 194.113C63.3545 193.755 63.4381 193.386 63.6479 193.089C63.8576 192.792 64.1765 192.59 64.5348 192.527C64.8931 192.464 65.2617 192.545 65.5601 192.753C67.5071 194.127 69.5482 195.462 71.6272 196.724C71.884 196.88 72.0828 197.116 72.1932 197.396C72.3036 197.675 72.3195 197.983 72.2384 198.273C72.1574 198.562 71.9839 198.817 71.7445 198.999C71.505 199.18 71.2127 199.279 70.9122 199.278H70.9111ZM58.9181 190.799C58.5987 190.799 58.2892 190.687 58.0431 190.483C56.1771 188.945 54.3881 187.349 52.7221 185.736C52.4343 185.532 52.2343 185.226 52.1622 184.881C52.0901 184.535 52.1513 184.175 52.3333 183.873C52.5154 183.571 52.805 183.348 53.1441 183.25C53.4832 183.152 53.8468 183.186 54.1622 183.344C56.3849 183.843 58.6332 184.219 60.8971 184.471C61.0797 184.487 61.2572 184.539 61.4192 184.625C61.5813 184.71 61.7246 184.827 61.8408 184.969C61.957 185.111 62.0437 185.274 62.0959 185.45C62.1481 185.626 62.1647 185.81 62.1447 185.992C62.1247 186.174 62.0686 186.351 61.9796 186.511C61.8906 186.671 61.7705 186.812 61.6264 186.925C61.4822 187.038 61.3169 187.122 61.1402 187.17C60.9635 187.219 60.7789 187.231 60.5971 187.207C59.7465 187.113 58.8935 187.002 58.0381 186.872C58.6155 187.372 59.2018 187.868 59.7971 188.359C60.0158 188.54 60.1734 188.783 60.2485 189.057C60.3235 189.33 60.3124 189.62 60.2166 189.887C60.1207 190.154 59.9449 190.385 59.7131 190.548C59.4812 190.711 59.2047 190.798 58.9212 190.799H58.9181ZM68.0741 187.59C67.7089 187.591 67.3581 187.447 67.0987 187.19C66.8393 186.933 66.6927 186.584 66.6911 186.218C66.6896 185.853 66.8331 185.502 67.0902 185.243C67.3473 184.984 67.6969 184.837 68.0621 184.835C69.9801 184.819 71.9161 184.707 73.8191 184.505C74.2091 184.464 74.6692 184.414 75.2392 184.346C75.4207 184.321 75.6055 184.332 75.7827 184.379C75.9599 184.425 76.1261 184.507 76.2713 184.619C76.4166 184.731 76.5381 184.87 76.6286 185.03C76.7192 185.189 76.777 185.365 76.7988 185.547C76.8205 185.729 76.8056 185.913 76.7551 186.09C76.7045 186.266 76.6193 186.43 76.5044 186.573C76.3895 186.716 76.2472 186.834 76.0859 186.921C75.9246 187.009 75.7476 187.063 75.5651 187.08C74.9811 187.15 74.5101 187.201 74.1651 187.237C72.1165 187.455 70.0895 187.573 68.0842 187.59H68.0741ZM82.6622 185.889C82.3222 185.889 81.9945 185.762 81.7424 185.534C81.4902 185.306 81.3313 184.992 81.2963 184.654C81.2613 184.316 81.3526 183.977 81.5527 183.702C81.7529 183.427 82.0476 183.236 82.3801 183.165C84.7801 182.665 87.1321 182.054 89.3801 181.366C89.7292 181.258 90.1067 181.293 90.4296 181.464C90.7525 181.634 90.9945 181.926 91.1022 182.275C91.2098 182.624 91.1744 183.002 91.0038 183.325C90.8331 183.648 90.5412 183.89 90.1922 183.997C87.8672 184.713 85.4312 185.342 82.9512 185.864C82.8556 185.883 82.7584 185.891 82.6611 185.888L82.6622 185.889ZM46.4621 183.941C46.3068 183.941 46.1526 183.915 46.0061 183.863C43.6495 183.034 41.3398 182.076 39.0871 180.995C38.7616 180.835 38.5124 180.553 38.3937 180.21C38.275 179.867 38.2965 179.492 38.4534 179.164C38.6103 178.837 38.89 178.585 39.2317 178.463C39.5734 178.341 39.9495 178.359 40.2781 178.512C42.4398 179.55 44.6564 180.469 46.9181 181.265C47.2247 181.373 47.4832 181.586 47.648 181.866C47.8128 182.146 47.8733 182.475 47.8187 182.796C47.7641 183.116 47.598 183.407 47.3497 183.617C47.1015 183.826 46.7871 183.941 46.4621 183.941V183.941ZM96.6811 181.53C96.3641 181.53 96.0569 181.421 95.8111 181.221C95.5654 181.021 95.3963 180.742 95.3324 180.431C95.2685 180.121 95.3136 179.798 95.4603 179.517C95.6069 179.236 95.8459 179.014 96.1371 178.888C98.3353 177.949 100.47 176.868 102.528 175.653C102.684 175.556 102.857 175.492 103.037 175.464C103.218 175.435 103.402 175.443 103.58 175.487C103.757 175.53 103.924 175.609 104.071 175.718C104.218 175.826 104.342 175.963 104.435 176.12C104.529 176.278 104.59 176.452 104.615 176.633C104.641 176.814 104.63 176.998 104.583 177.175C104.537 177.352 104.455 177.517 104.344 177.662C104.233 177.807 104.094 177.929 103.935 178.019C101.774 179.297 99.5324 180.433 97.2241 181.419C97.0543 181.492 96.8717 181.529 96.6871 181.529L96.6811 181.53ZM48.4481 180.53C48.247 180.531 48.0482 180.487 47.8659 180.402C47.6837 180.317 47.5223 180.193 47.3931 180.038C45.7799 178.125 44.2813 176.117 42.9051 174.026C42.7955 173.876 42.7177 173.704 42.6763 173.522C42.6349 173.341 42.6308 173.153 42.6643 172.969C42.6979 172.786 42.7683 172.611 42.8713 172.456C42.9743 172.301 43.1077 172.168 43.2636 172.065C43.4194 171.963 43.5944 171.894 43.7779 171.861C43.9614 171.828 44.1496 171.833 44.3312 171.876C44.5127 171.918 44.6838 171.997 44.834 172.107C44.9842 172.217 45.1105 172.357 45.2052 172.517C46.5218 174.517 47.9553 176.438 49.4981 178.268C49.6665 178.469 49.7741 178.714 49.8084 178.973C49.8426 179.233 49.8021 179.497 49.6916 179.735C49.581 179.972 49.405 180.173 49.1842 180.314C48.9635 180.455 48.7071 180.53 48.4451 180.53H48.4481ZM33.2481 177.609C32.9927 177.609 32.7423 177.538 32.5251 177.403C30.4025 176.089 28.3506 174.664 26.3781 173.133C26.2353 173.023 26.1158 172.885 26.0262 172.728C25.9367 172.571 25.879 172.398 25.8564 172.218C25.8107 171.856 25.9108 171.49 26.1346 171.202C26.3585 170.914 26.6877 170.726 27.05 170.68C27.4122 170.635 27.7777 170.735 28.0661 170.958C29.9624 172.428 31.9348 173.797 33.9751 175.059C34.23 175.216 34.4264 175.453 34.5347 175.732C34.6429 176.012 34.657 176.319 34.5749 176.607C34.4928 176.895 34.3189 177.148 34.0797 177.329C33.8404 177.509 33.5488 177.607 33.2491 177.606L33.2481 177.609ZM109.23 173.986C108.947 173.987 108.672 173.9 108.44 173.738C108.208 173.576 108.032 173.346 107.935 173.081C107.838 172.815 107.826 172.526 107.899 172.253C107.972 171.98 108.128 171.736 108.344 171.554C110.154 170.043 111.812 168.358 113.295 166.523C113.524 166.239 113.856 166.057 114.219 166.017C114.583 165.977 114.946 166.084 115.231 166.312C115.516 166.541 115.698 166.874 115.738 167.237C115.777 167.6 115.671 167.964 115.442 168.248C113.847 170.222 112.063 172.036 110.116 173.663C109.867 173.87 109.552 173.982 109.228 173.978L109.23 173.986ZM21.6701 168.622C21.3139 168.623 20.9713 168.485 20.7151 168.237C18.9152 166.506 17.21 164.679 15.6071 162.763C15.3842 162.482 15.2799 162.125 15.3165 161.768C15.3531 161.411 15.5276 161.082 15.803 160.852C16.0784 160.622 16.4328 160.508 16.7907 160.535C17.1486 160.562 17.4817 160.728 17.7191 160.997C19.257 162.836 20.8928 164.591 22.6192 166.254C22.817 166.445 22.9533 166.69 23.0107 166.959C23.0681 167.227 23.0439 167.507 22.9413 167.761C22.8386 168.016 22.6622 168.234 22.4346 168.388C22.207 168.541 21.9387 168.623 21.6641 168.623L21.6701 168.622ZM40.4801 168.246C40.2173 168.246 39.96 168.171 39.7386 168.029C39.5173 167.887 39.3412 167.685 39.2312 167.446C38.1617 165.157 37.2918 162.78 36.6311 160.341C36.5464 159.992 36.6015 159.624 36.7848 159.314C36.9681 159.005 37.265 158.78 37.6122 158.687C37.9593 158.593 38.3291 158.64 38.6427 158.815C38.9562 158.991 39.1886 159.283 39.2901 159.627C39.9108 161.913 40.7275 164.14 41.7312 166.284C41.8288 166.494 41.8719 166.725 41.8567 166.956C41.8415 167.187 41.7684 167.41 41.6442 167.605C41.5199 167.8 41.3485 167.961 41.1457 168.072C40.943 168.184 40.7155 168.242 40.4841 168.242L40.4801 168.246ZM118.31 162.597C118.076 162.597 117.846 162.537 117.642 162.423C117.437 162.309 117.265 162.145 117.142 161.946C117.018 161.748 116.948 161.521 116.936 161.287C116.925 161.053 116.973 160.82 117.077 160.611C118.055 158.624 118.828 156.542 119.384 154.398L119.484 154.009C119.578 153.661 119.805 153.364 120.117 153.182C120.428 152.999 120.798 152.946 121.148 153.033C121.498 153.121 121.799 153.343 121.988 153.65C122.176 153.958 122.236 154.327 122.155 154.679L122.049 155.093C121.447 157.418 120.609 159.676 119.549 161.83C119.434 162.061 119.257 162.254 119.038 162.389C118.819 162.524 118.566 162.595 118.309 162.593L118.31 162.597ZM12.2751 157.375C12.0475 157.376 11.8234 157.319 11.6229 157.212C11.4224 157.104 11.2517 156.948 11.1261 156.758C9.7454 154.674 8.48435 152.513 7.34913 150.285C7.19415 149.961 7.17194 149.59 7.28721 149.249C7.40249 148.909 7.64613 148.627 7.96617 148.464C8.28621 148.301 8.65732 148.27 9.00032 148.377C9.34331 148.483 9.63104 148.72 9.80214 149.035C10.89 151.169 12.0983 153.239 13.4212 155.236C13.5584 155.443 13.637 155.684 13.6484 155.932C13.6599 156.181 13.6038 156.427 13.4862 156.647C13.3685 156.866 13.1937 157.049 12.9803 157.177C12.7669 157.305 12.5229 157.372 12.2742 157.372L12.2751 157.375ZM36.7531 154.144C36.4037 154.144 36.0675 154.011 35.8128 153.771C35.558 153.532 35.4037 153.205 35.3811 152.856C35.3301 152.073 35.3051 151.276 35.3051 150.488C35.306 148.736 35.4313 146.985 35.6801 145.25C35.7348 144.891 35.929 144.569 36.2206 144.352C36.5122 144.136 36.8775 144.043 37.237 144.095C37.5965 144.146 37.921 144.338 38.14 144.627C38.3589 144.917 38.4546 145.281 38.4061 145.641C38.1758 147.247 38.0598 148.867 38.0591 150.488C38.0591 151.217 38.0831 151.954 38.1301 152.679C38.1419 152.859 38.1181 153.04 38.0599 153.211C38.0016 153.382 37.9102 153.54 37.7909 153.676C37.6716 153.812 37.5266 153.923 37.3643 154.003C37.202 154.083 37.0256 154.13 36.8451 154.141C36.8121 154.14 36.7821 154.141 36.7521 154.141L36.7531 154.144ZM121.858 148.462H121.797C121.432 148.447 121.089 148.287 120.842 148.017C120.595 147.748 120.465 147.392 120.481 147.028C120.504 146.494 120.516 145.961 120.515 145.427C120.513 143.596 120.382 141.768 120.123 139.955C120.094 139.775 120.101 139.59 120.144 139.412C120.187 139.234 120.265 139.066 120.373 138.919C120.482 138.771 120.618 138.647 120.776 138.553C120.933 138.459 121.107 138.397 121.288 138.371C121.47 138.346 121.654 138.356 121.831 138.403C122.008 138.449 122.175 138.53 122.32 138.642C122.465 138.753 122.587 138.892 122.678 139.051C122.769 139.21 122.827 139.386 122.849 139.567C123.127 141.508 123.267 143.467 123.269 145.427C123.269 145.999 123.257 146.57 123.233 147.142C123.218 147.497 123.066 147.832 122.81 148.077C122.553 148.323 122.212 148.46 121.857 148.46L121.858 148.462ZM5.62413 144.318C5.34293 144.318 5.06861 144.232 4.83799 144.071C4.60738 143.91 4.43155 143.682 4.33415 143.418C3.46178 141.077 2.71932 138.688 2.11015 136.264C2.06127 136.088 2.04821 135.903 2.07179 135.721C2.09537 135.539 2.15508 135.363 2.24742 135.205C2.33976 135.046 2.46288 134.908 2.60951 134.797C2.75614 134.687 2.92335 134.607 3.1013 134.562C3.27925 134.518 3.46437 134.509 3.64576 134.537C3.82715 134.564 4.00114 134.628 4.15754 134.724C4.31395 134.82 4.44961 134.946 4.55653 135.095C4.66345 135.245 4.73946 135.414 4.78013 135.592C5.36467 137.918 6.07709 140.209 6.91413 142.455C6.99197 142.664 7.0182 142.888 6.99058 143.108C6.96296 143.329 6.88234 143.54 6.75557 143.722C6.62879 143.905 6.45965 144.054 6.26262 144.158C6.06558 144.261 5.8465 144.315 5.62413 144.314V144.318ZM38.7731 139.696C38.5546 139.696 38.3393 139.643 38.1452 139.543C37.951 139.443 37.7834 139.298 37.6564 139.12C37.5294 138.942 37.4465 138.737 37.4147 138.52C37.3828 138.304 37.4028 138.083 37.4731 137.877C38.2891 135.493 39.2843 133.175 40.4501 130.942C40.6209 130.622 40.911 130.383 41.2575 130.275C41.604 130.168 41.9788 130.202 42.3005 130.369C42.6223 130.537 42.865 130.824 42.976 131.169C43.087 131.515 43.0572 131.89 42.8931 132.213C41.7916 134.322 40.8513 136.512 40.0802 138.762C39.987 139.035 39.8107 139.272 39.5761 139.439C39.3414 139.606 39.0603 139.696 38.7721 139.694L38.7731 139.696ZM119.831 133.996C119.54 133.996 119.256 133.904 119.021 133.732C118.785 133.561 118.61 133.319 118.521 133.041C117.791 130.781 116.88 128.584 115.798 126.469C115.632 126.144 115.602 125.766 115.714 125.419C115.826 125.071 116.072 124.783 116.397 124.616C116.722 124.45 117.1 124.42 117.448 124.532C117.795 124.644 118.084 124.89 118.25 125.215C119.399 127.461 120.366 129.796 121.142 132.196C121.209 132.403 121.226 132.623 121.191 132.837C121.157 133.051 121.073 133.255 120.945 133.43C120.817 133.606 120.649 133.748 120.456 133.847C120.262 133.945 120.048 133.997 119.831 133.996V133.996ZM2.03114 130.107C1.69961 130.107 1.37933 129.987 1.12913 129.77C0.878929 129.552 0.715606 129.252 0.66914 128.924C0.321117 126.453 0.0971791 123.966 -0.0018501 121.473C-0.00900714 121.293 0.019474 121.112 0.0820122 120.943C0.14455 120.773 0.239909 120.617 0.362621 120.485C0.485334 120.352 0.633017 120.244 0.797222 120.168C0.961427 120.093 1.13895 120.05 1.31965 120.043C1.50035 120.036 1.68067 120.064 1.85035 120.127C2.02004 120.189 2.17574 120.285 2.30857 120.407C2.44141 120.53 2.54879 120.678 2.62455 120.842C2.70032 121.006 2.74298 121.184 2.75013 121.364C2.84536 123.764 3.06096 126.158 3.39613 128.536C3.42327 128.732 3.40829 128.93 3.35215 129.119C3.29602 129.308 3.20005 129.483 3.07072 129.632C2.94139 129.781 2.78169 129.9 2.60237 129.982C2.42305 130.064 2.22826 130.106 2.03114 130.106V130.107ZM45.4851 126.689C45.2331 126.688 44.986 126.619 44.7707 126.488C44.5554 126.357 44.3802 126.169 44.2642 125.945C44.1482 125.722 44.0958 125.47 44.1127 125.219C44.1296 124.968 44.2152 124.726 44.3601 124.519C45.8046 122.47 47.3771 120.514 49.0681 118.663C49.1889 118.525 49.336 118.413 49.5007 118.333C49.6653 118.252 49.8443 118.206 50.0272 118.196C50.21 118.186 50.393 118.212 50.5655 118.274C50.738 118.335 50.8965 118.431 51.0317 118.554C51.1669 118.678 51.2761 118.827 51.353 118.993C51.4298 119.159 51.4727 119.339 51.4792 119.522C51.4856 119.705 51.4555 119.888 51.3906 120.059C51.3257 120.23 51.2273 120.387 51.1011 120.519C49.4886 122.285 47.9889 124.15 46.6111 126.104C46.484 126.284 46.3156 126.431 46.12 126.532C45.9244 126.633 45.7073 126.686 45.4871 126.685L45.4851 126.689ZM113.172 120.972C112.955 120.973 112.742 120.922 112.549 120.824C112.355 120.726 112.188 120.583 112.06 120.408C110.658 118.492 109.102 116.694 107.406 115.031C107.152 114.775 107.009 114.428 107.008 114.067C107.007 113.705 107.148 113.358 107.401 113.1C107.654 112.842 107.998 112.693 108.359 112.686C108.72 112.68 109.07 112.815 109.332 113.064C111.136 114.831 112.791 116.743 114.282 118.781C114.432 118.987 114.523 119.229 114.543 119.483C114.564 119.736 114.514 119.99 114.399 120.217C114.284 120.444 114.109 120.634 113.892 120.767C113.676 120.901 113.426 120.971 113.172 120.971V120.972ZM55.3721 115.872C55.0902 115.873 54.815 115.786 54.5838 115.625C54.3526 115.463 54.1765 115.235 54.0794 114.97C53.9822 114.705 53.9686 114.417 54.0404 114.145C54.1123 113.872 54.2662 113.628 54.4812 113.445C56.3957 111.82 58.4183 110.327 60.5351 108.976C60.6877 108.876 60.8584 108.808 61.0373 108.775C61.2163 108.742 61.4 108.745 61.5779 108.784C61.7557 108.822 61.9242 108.896 62.0735 109C62.2228 109.104 62.35 109.237 62.4477 109.39C62.5454 109.544 62.6118 109.715 62.6429 109.894C62.674 110.074 62.6693 110.257 62.6289 110.435C62.5886 110.612 62.5135 110.78 62.408 110.928C62.3025 111.076 62.1686 111.202 62.0141 111.299C60.0029 112.582 58.0811 114.001 56.2621 115.545C56.0134 115.755 55.6983 115.869 55.3731 115.867L55.3721 115.872ZM1.44215 115.457H1.36213C1.18121 115.448 1.00401 115.402 0.840679 115.324C0.67735 115.245 0.53112 115.135 0.410351 115C0.289581 114.865 0.196634 114.708 0.136883 114.537C0.0771315 114.365 0.0517462 114.184 0.0621453 114.003C0.203916 111.512 0.470908 109.03 0.862133 106.565C0.92622 106.211 1.12673 105.896 1.42064 105.687C1.71454 105.479 2.07841 105.394 2.43422 105.451C2.79002 105.507 3.10939 105.701 3.3238 105.991C3.53822 106.28 3.6306 106.643 3.58113 106.999C3.20522 109.372 2.94892 111.762 2.81315 114.16C2.79133 114.509 2.63764 114.837 2.38325 115.077C2.12887 115.317 1.79279 115.451 1.44313 115.452L1.44215 115.457ZM102.697 110.778C102.422 110.778 102.153 110.695 101.926 110.54C99.9758 109.214 97.899 108.083 95.7262 107.164C95.3895 107.023 95.1228 106.754 94.9847 106.415C94.8467 106.077 94.8487 105.698 94.9902 105.361C95.1317 105.025 95.4011 104.758 95.7392 104.62C96.0773 104.482 96.4564 104.484 96.7931 104.625C99.1331 105.615 101.37 106.833 103.47 108.262C103.714 108.427 103.898 108.666 103.995 108.944C104.093 109.222 104.099 109.524 104.012 109.805C103.926 110.087 103.751 110.333 103.514 110.508C103.277 110.683 102.991 110.778 102.696 110.778L102.697 110.778ZM67.7402 108.049C67.4243 108.049 67.118 107.941 66.8728 107.742C66.6275 107.543 66.4582 107.265 66.3931 106.956C66.3281 106.647 66.3713 106.325 66.5155 106.044C66.6597 105.763 66.8961 105.54 67.1851 105.413C69.498 104.391 71.8958 103.575 74.3512 102.971C74.706 102.885 75.0806 102.943 75.3926 103.133C75.7046 103.323 75.9283 103.629 76.0146 103.984C76.101 104.339 76.0428 104.713 75.8529 105.025C75.663 105.337 75.357 105.561 75.0022 105.648C72.7034 106.212 70.4585 106.977 68.2931 107.934C68.1185 108.008 67.9302 108.046 67.7402 108.044V108.049ZM89.2402 105.176C89.1566 105.176 89.0733 105.169 88.9911 105.153C87.0962 104.809 85.1741 104.636 83.2482 104.637C82.8592 104.63 82.4032 104.644 81.9812 104.66C81.6162 104.674 81.2606 104.543 80.9926 104.295C80.7246 104.047 80.5662 103.702 80.5521 103.337C80.5381 102.973 80.6696 102.617 80.9177 102.349C81.1658 102.081 81.5102 101.923 81.8751 101.908C82.3331 101.89 82.8221 101.899 83.2491 101.882C85.3408 101.882 87.4282 102.07 89.4861 102.444C89.8234 102.507 90.1253 102.693 90.3326 102.966C90.5399 103.24 90.6378 103.58 90.607 103.922C90.5762 104.264 90.4191 104.582 90.1662 104.813C89.9134 105.045 89.5832 105.174 89.2402 105.175V105.176ZM3.80613 100.991C3.59342 100.991 3.3836 100.941 3.1931 100.847C3.00259 100.752 2.8366 100.615 2.70814 100.445C2.57968 100.276 2.49224 100.079 2.45268 99.8695C2.41312 99.6605 2.42253 99.4453 2.48014 99.2405C3.15687 96.8381 3.96202 94.4737 4.89213 92.1575C5.03208 91.8241 5.29753 91.559 5.63118 91.4197C5.96482 91.2804 6.33988 91.2779 6.67537 91.4128C7.01085 91.5476 7.27984 91.8091 7.42424 92.1405C7.56863 92.472 7.57684 92.847 7.44712 93.1845C6.55348 95.408 5.78004 97.6779 5.13014 99.9844C5.04844 100.272 4.87522 100.526 4.6367 100.706C4.39818 100.887 4.10733 100.985 3.80815 100.986L3.80613 100.991ZM9.26213 87.3964C9.02476 87.3961 8.7915 87.3346 8.58497 87.2176C8.37845 87.1006 8.20567 86.9321 8.08342 86.7287C7.96116 86.5252 7.89358 86.2936 7.88722 86.0563C7.88086 85.819 7.93595 85.5841 8.04713 85.3744C9.21737 83.1704 10.5001 81.0279 11.8901 78.9555C11.9899 78.8031 12.1189 78.6718 12.2696 78.5696C12.4204 78.4674 12.5899 78.3961 12.7684 78.3599C12.947 78.3237 13.1309 78.3232 13.3096 78.3586C13.4883 78.3939 13.6582 78.4644 13.8095 78.5658C13.9607 78.6673 14.0904 78.7977 14.1909 78.9496C14.2914 79.1016 14.3607 79.2719 14.3949 79.4508C14.4291 79.6298 14.4275 79.8137 14.3901 79.992C14.3527 80.1703 14.2803 80.3393 14.1771 80.4894C12.8389 82.4827 11.604 84.5435 10.4772 86.6635C10.3598 86.8833 10.185 87.067 9.97136 87.1952C9.75772 87.3234 9.5133 87.3912 9.26414 87.3914L9.26213 87.3964ZM17.4221 75.2145C17.161 75.2142 16.9054 75.1396 16.6851 74.9996C16.4648 74.8595 16.2888 74.6598 16.1777 74.4235C16.0665 74.1872 16.0249 73.9242 16.0576 73.6652C16.0902 73.4062 16.1959 73.1618 16.3621 72.9605C17.9371 71.0545 19.6311 69.1954 21.3971 67.4364C21.5243 67.3047 21.6764 67.1996 21.8446 67.1274C22.0128 67.0551 22.1938 67.017 22.3768 67.0155C22.5599 67.014 22.7415 67.0491 22.9109 67.1186C23.0803 67.1881 23.2341 67.2907 23.3633 67.4203C23.4926 67.55 23.5947 67.7041 23.6637 67.8737C23.7327 68.0433 23.7671 68.2249 23.7651 68.408C23.763 68.5911 23.7244 68.772 23.6517 68.94C23.5789 69.108 23.4733 69.2598 23.3411 69.3865C21.6411 71.0865 20.0041 72.8775 18.4851 74.7155C18.3556 74.8709 18.1933 74.9957 18.0099 75.0811C17.8265 75.1665 17.6265 75.2104 17.4241 75.2095L17.4221 75.2145ZM27.8081 64.8544C27.5246 64.8545 27.2479 64.7671 27.0159 64.604C26.7838 64.441 26.6078 64.2103 26.5119 63.9434C26.4159 63.6765 26.4047 63.3866 26.4797 63.1131C26.5548 62.8396 26.7124 62.596 26.9311 62.4154C28.8311 60.8434 30.8441 59.3324 32.9011 57.9274C33.0502 57.821 33.2191 57.7455 33.3977 57.7051C33.5764 57.6648 33.7613 57.6605 33.9416 57.6925C34.122 57.7246 34.2941 57.7922 34.448 57.8915C34.6019 57.9909 34.7344 58.12 34.8377 58.2712C34.9411 58.4224 35.0133 58.5927 35.05 58.7721C35.0868 58.9516 35.0873 59.1365 35.0517 59.3162C35.0161 59.4959 34.945 59.6666 34.8425 59.8184C34.7401 59.9702 34.6084 60.1002 34.4552 60.2005C32.4662 61.5595 30.5241 63.0195 28.6841 64.5385C28.4378 64.7406 28.1288 64.8505 27.8101 64.8494L27.8081 64.8544ZM39.9221 56.5715C39.6175 56.5715 39.3214 56.4706 39.0803 56.2845C38.8392 56.0983 38.6666 55.8375 38.5895 55.5428C38.5125 55.248 38.5353 54.936 38.6545 54.6557C38.7737 54.3753 38.9825 54.1425 39.2481 53.9934C41.4021 52.7854 43.6482 51.6544 45.9122 50.6294C46.2434 50.4882 46.6168 50.4823 46.9523 50.6131C47.2878 50.7438 47.5587 51.0009 47.707 51.329C47.8554 51.6572 47.8692 52.0303 47.7457 52.3686C47.6221 52.7068 47.371 52.9832 47.0462 53.1385C44.8462 54.1315 42.6791 55.2264 40.5951 56.3954C40.3897 56.5086 40.1587 56.5672 39.9241 56.5655L39.9221 56.5715ZM53.2962 50.5235C52.9714 50.5233 52.6572 50.4084 52.409 50.199C52.1608 49.9897 51.9946 49.6993 51.9397 49.3793C51.8848 49.0593 51.9447 48.7301 52.1089 48.45C52.2731 48.1699 52.5311 47.9568 52.8371 47.8484C55.1651 47.0264 57.5632 46.2904 59.9642 45.6614C60.3174 45.5686 60.6931 45.62 61.0085 45.8041C61.324 45.9883 61.5533 46.2902 61.6461 46.6435C61.739 46.9967 61.6877 47.3723 61.5035 47.6878C61.3193 48.0032 61.0174 48.2327 60.6641 48.3255C58.3371 48.9345 56.0132 49.6485 53.7572 50.4455C53.6093 50.4952 53.4541 50.5196 53.2981 50.5175L53.2962 50.5235Z" fill="white"/>
<path opacity="0.1" d="M149.774 2.76562L15.0127 20.7467L47.6847 45.5277L48.1968 91.1377L76.3507 67.2236L92.1718 79.1527L149.774 2.76562Z" fill="#232323"/>
<path d="M51.1367 88.3729L50.3896 21.749L152.715 0L51.1367 88.3729Z" fill="#46C1AA"/>
<path d="M50.8472 42.9299C51.3652 42.6699 152.715 0 152.715 0L17.9551 17.981L50.8472 42.9299Z" fill="#52D1BD"/>
<path d="M62.0167 51.4324L51.1367 88.3713L97.8018 48.7344L62.0167 51.4324Z" fill="#3CAF99"/>
<path d="M62.0176 51.434L95.1125 76.3879L152.713 0.000976562L62.0176 51.434Z" fill="#52D1BD"/>
</g>
<defs>
<clipPath id="clip0_18_99">
<rect width="168.714" height="212.545" fill="white"/>
</clipPath>
</defs>
</svg>
