<svg width="60" height="60" viewBox="0 0 60 60" fill="none" xmlns="http://www.w3.org/2000/svg">
<path d="M58.2609 43.9999L49.8939 35.6329C49.2298 34.9491 48.4012 34.4473 47.4875 34.1757C46.5738 33.9041 45.6056 33.8717 44.6759 34.0817C43.7461 34.2917 42.8858 34.737 42.1775 35.3749C41.4692 36.0129 40.9367 36.822 40.6309 37.7249C40.1538 39.0164 39.225 40.0913 38.0163 40.7506C36.8077 41.4099 35.401 41.6089 34.0569 41.3109C28.0809 39.8169 20.0129 32.0479 18.5189 25.7729C18.1551 24.4265 18.3247 22.9918 18.9923 21.7674C19.66 20.543 20.7742 19.6233 22.1029 19.1999C23.0057 18.8941 23.8149 18.3615 24.4528 17.6532C25.0907 16.945 25.536 16.0847 25.746 15.1549C25.956 14.2251 25.9237 13.257 25.6521 12.3433C25.3804 11.4296 24.8787 10.601 24.1949 9.93686L15.8279 1.56886C14.7271 0.55918 13.2876 -0.000976563 11.7939 -0.000976562C10.3002 -0.000976562 8.86073 0.55918 7.7599 1.56886L2.08291 7.24586C-3.59409 13.2219 2.68291 29.0589 16.7249 43.1029C30.7669 57.1469 46.6059 63.7219 52.5819 57.7449L58.2609 52.0679C59.2706 50.967 59.8307 49.5276 59.8307 48.0339C59.8307 46.5401 59.2706 45.1007 58.2609 43.9999V43.9999Z" fill="#364F6B"/>
</svg>
